{
  "accessors": [
    {
      "bufferView": 2,
      "componentType": 5126,
      "count": 1032,
      "max": [
        0.93105792999267578,
        0.90035468339920044,
        1.0002998113632202
      ],
      "min": [
        -0.9188152551651001,
        -0.97004121541976929,
        -0.9499163031578064
      ],
      "type": "VEC3"
    },
    {
      "bufferView": 2,
      "byteOffset": 12384,
      "componentType": 5126,
      "count": 1032,
      "max": [
        0.98584133386611938,
        0.98460483551025391,
        0.99048912525177002
      ],
      "min": [
        -0.98873043060302734,
        -0.99137365818023682,
        -0.99525576829910278
      ],
      "type": "VEC3"
    },
    {
      "bufferView": 3,
      "componentType": 5126,
      "count": 1032,
      "max": [
        0.93112587928771973,
        0.99803388118743896,
        0.99513357877731323,
        1
      ],
      "min": [
        -0.9800494909286499,
        -0.98069667816162109,
        -0.93634307384490967,
        1
      ],
      "type": "VEC4"
    },
    {
      "bufferView": 1,
      "componentType": 5126,
      "count": 1032,
      "max": [
        0.99164634943008423,
        0.99561917781829834
      ],
      "min": [
        0.0089711491018533707,
        0.012167502194643021
      ],
      "type": "VEC2"
    },
    {
      "bufferView": 0,
      "componentType": 5125,
      "count": 1404,
      "max": [
        1031
      ],
      "min": [
        0
      ],
      "type": "SCALAR"
    },
    {
      "bufferView": 2,
      "byteOffset": 24768,
      "componentType": 5126,
      "count": 1032,
      "max": [
        0.93105792999267578,
        0.90035468339920044,
        1.0002998113632202
      ],
      "min": [
        -0.9188152551651001,
        -0.97004121541976929,
        -0.9499163031578064
      ],
      "type": "VEC3"
    },
    {
      "bufferView": 2,
      "byteOffset": 37152,
      "componentType": 5126,
      "count": 1032,
      "max": [
        0.98584133386611938,
        0.98460483551025391,
        0.99048912525177002
      ],
      "min": [
        -0.98873043060302734,
        -0.99137365818023682,
        -0.99525576829910278
      ],
      "type": "VEC3"
    },
    {
      "bufferView": 3,
      "byteOffset": 16512,
      "componentType": 5126,
      "count": 1032,
      "max": [
        0.93112587928771973,
        0.99803388118743896,
        0.99513357877731323,
        1
      ],
      "min": [
        -0.9800494909286499,
        -0.98069667816162109,
        -0.93634307384490967,
        1
      ],
      "type": "VEC4"
    },
    {
      "bufferView": 1,
      "byteOffset": 8256,
      "componentType": 5126,
      "count": 1032,
      "max": [
        0.99164634943008423,
        0.99561917781829834
      ],
      "min": [
        0.0089711491018533707,
        0.012167502194643021
      ],
      "type": "VEC2"
    },
    {
      "bufferView": 0,
      "byteOffset": 5616,
      "componentType": 5125,
      "count": 1404,
      "max": [
        1031
      ],
      "min": [
        0
      ],
      "type": "SCALAR"
    },
    {
      "bufferView": 2,
      "byteOffset": 49536,
      "componentType": 5126,
      "count": 1032,
      "max": [
        0.93105792999267578,
        0.90035468339920044,
        1.0002998113632202
      ],
      "min": [
        -0.9188152551651001,
        -0.97004121541976929,
        -0.9499163031578064
      ],
      "type": "VEC3"
    },
    {
      "bufferView": 2,
      "byteOffset": 61920,
      "componentType": 5126,
      "count": 1032,
      "max": [
        0.98584133386611938,
        0.98460483551025391,
        0.99048912525177002
      ],
      "min": [
        -0.98873043060302734,
        -0.99137365818023682,
        -0.99525576829910278
      ],
      "type": "VEC3"
    },
    {
      "bufferView": 3,
      "byteOffset": 33024,
      "componentType": 5126,
      "count": 1032,
      "max": [
        0.93112587928771973,
        0.99803388118743896,
        0.99513357877731323,
        1
      ],
      "min": [
        -0.9800494909286499,
        -0.98069667816162109,
        -0.93634307384490967,
        1
      ],
      "type": "VEC4"
    },
    {
      "bufferView": 1,
      "byteOffset": 16512,
      "componentType": 5126,
      "count": 1032,
      "max": [
        0.99164634943008423,
        0.99561917781829834
      ],
      "min": [
        0.0089711491018533707,
        0.012167502194643021
      ],
      "type": "VEC2"
    },
    {
      "bufferView": 0,
      "byteOffset": 11232,
      "componentType": 5125,
      "count": 1404,
      "max": [
        1031
      ],
      "min": [
        0
      ],
      "type": "SCALAR"
    },
    {
      "bufferView": 2,
      "byteOffset": 74304,
      "componentType": 5126,
      "count": 1032,
      "max": [
        0.93105792999267578,
        0.90035468339920044,
        1.0002998113632202
      ],
      "min": [
        -0.9188152551651001,
        -0.97004121541976929,
        -0.9499163031578064
      ],
      "type": "VEC3"
    },
    {
      "bufferView": 2,
      "byteOffset": 86688,
      "componentType": 5126,
      "count": 1032,
      "max": [
        0.98584133386611938,
        0.98460483551025391,
        0.99048912525177002
      ],
      "min": [
        -0.98873043060302734,
        -0.99137365818023682,
        -0.99525576829910278
      ],
      "type": "VEC3"
    },
    {
      "bufferView": 3,
      "byteOffset": 49536,
      "componentType": 5126,
      "count": 1032,
      "max": [
        0.93112587928771973,
        0.99803388118743896,
        0.99513357877731323,
        1
      ],
      "min": [
        -0.9800494909286499,
        -0.98069667816162109,
        -0.93634307384490967,
        1
      ],
      "type": "VEC4"
    },
    {
      "bufferView": 1,
      "byteOffset": 24768,
      "componentType": 5126,
      "count": 1032,
      "max": [
        0.99164634943008423,
        0.99561917781829834
      ],
      "min": [
        0.0089711491018533707,
        0.012167502194643021
      ],
      "type": "VEC2"
    },
    {
      "bufferView": 0,
      "byteOffset": 16848,
      "componentType": 5125,
      "count": 1404,
      "max": [
        1031
      ],
      "min": [
        0
      ],
      "type": "SCALAR"
    },
    {
      "bufferView": 2,
      "byteOffset": 99072,
      "componentType": 5126,
      "count": 1032,
      "max": [
        0.93105792999267578,
        0.90035468339920044,
        1.0002998113632202
      ],
      "min": [
        -0.9188152551651001,
        -0.97004121541976929,
        -0.9499163031578064
      ],
      "type": "VEC3"
    },
    {
      "bufferView": 2,
      "byteOffset": 111456,
      "componentType": 5126,
      "count": 1032,
      "max": [
        0.98584133386611938,
        0.98460483551025391,
        0.99048912525177002
      ],
      "min": [
        -0.98873043060302734,
        -0.99137365818023682,
        -0.99525576829910278
      ],
      "type": "VEC3"
    },
    {
      "bufferView": 3,
      "byteOffset": 66048,
      "componentType": 5126,
      "count": 1032,
      "max": [
        0.93112587928771973,
        0.99803388118743896,
        0.99513357877731323,
        1
      ],
      "min": [
        -0.9800494909286499,
        -0.98069667816162109,
        -0.93634307384490967,
        1
      ],
      "type": "VEC4"
    },
    {
      "bufferView": 1,
      "byteOffset": 33024,
      "componentType": 5126,
      "count": 1032,
      "max": [
        0.99164634943008423,
        0.99561917781829834
      ],
      "min": [
        0.0089711491018533707,
        0.012167502194643021
      ],
      "type": "VEC2"
    },
    {
      "bufferView": 0,
      "byteOffset": 22464,
      "componentType": 5125,
      "count": 1404,
      "max": [
        1031
      ],
      "min": [
        0
      ],
      "type": "SCALAR"
    },
    {
      "bufferView": 2,
      "byteOffset": 123840,
      "componentType": 5126,
      "count": 1032,
      "max": [
        0.93105792999267578,
        0.90035468339920044,
        1.0002998113632202
      ],
      "min": [
        -0.9188152551651001,
        -0.97004121541976929,
        -0.9499163031578064
      ],
      "type": "VEC3"
    },
    {
      "bufferView": 2,
      "byteOffset": 136224,
      "componentType": 5126,
      "count": 1032,
      "max": [
        0.98584133386611938,
        0.98460483551025391,
        0.99048912525177002
      ],
      "min": [
        -0.98873043060302734,
        -0.99137365818023682,
        -0.99525576829910278
      ],
      "type": "VEC3"
    },
    {
      "bufferView": 3,
      "byteOffset": 82560,
      "componentType": 5126,
      "count": 1032,
      "max": [
        0.93112587928771973,
        0.99803388118743896,
        0.99513357877731323,
        1
      ],
      "min": [
        -0.9800494909286499,
        -0.98069667816162109,
        -0.93634307384490967,
        1
      ],
      "type": "VEC4"
    },
    {
      "bufferView": 1,
      "byteOffset": 41280,
      "componentType": 5126,
      "count": 1032,
      "max": [
        0.99164634943008423,
        0.99561917781829834
      ],
      "min": [
        0.0089711491018533707,
        0.012167502194643021
      ],
      "type": "VEC2"
    },
    {
      "bufferView": 0,
      "byteOffset": 28080,
      "componentType": 5125,
      "count": 1404,
      "max": [
        1031
      ],
      "min": [
        0
      ],
      "type": "SCALAR"
    },
    {
      "bufferView": 2,
      "byteOffset": 148608,
      "componentType": 5126,
      "count": 1032,
      "max": [
        0.93105792999267578,
        0.90035468339920044,
        1.0002998113632202
      ],
      "min": [
        -0.9188152551651001,
        -0.97004121541976929,
        -0.9499163031578064
      ],
      "type": "VEC3"
    },
    {
      "bufferView": 2,
      "byteOffset": 160992,
      "componentType": 5126,
      "count": 1032,
      "max": [
        0.98584133386611938,
        0.98460483551025391,
        0.99048912525177002
      ],
      "min": [
        -0.98873043060302734,
        -0.99137365818023682,
        -0.99525576829910278
      ],
      "type": "VEC3"
    },
    {
      "bufferView": 3,
      "byteOffset": 99072,
      "componentType": 5126,
      "count": 1032,
      "max": [
        0.93112587928771973,
        0.99803388118743896,
        0.99513357877731323,
        1
      ],
      "min": [
        -0.9800494909286499,
        -0.98069667816162109,
        -0.93634307384490967,
        1
      ],
      "type": "VEC4"
    },
    {
      "bufferView": 1,
      "byteOffset": 49536,
      "componentType": 5126,
      "count": 1032,
      "max": [
        0.99164634943008423,
        0.99561917781829834
      ],
      "min": [
        0.0089711491018533707,
        0.012167502194643021
      ],
      "type": "VEC2"
    },
    {
      "bufferView": 0,
      "byteOffset": 33696,
      "componentType": 5125,
      "count": 1404,
      "max": [
        1031
      ],
      "min": [
        0
      ],
      "type": "SCALAR"
    },
    {
      "bufferView": 2,
      "byteOffset": 173376,
      "componentType": 5126,
      "count": 1032,
      "max": [
        0.93105792999267578,
        0.90035468339920044,
        1.0002998113632202
      ],
      "min": [
        -0.9188152551651001,
        -0.97004121541976929,
        -0.9499163031578064
      ],
      "type": "VEC3"
    },
    {
      "bufferView": 2,
      "byteOffset": 185760,
      "componentType": 5126,
      "count": 1032,
      "max": [
        0.98584133386611938,
        0.98460483551025391,
        0.99048912525177002
      ],
      "min": [
        -0.98873043060302734,
        -0.99137365818023682,
        -0.99525576829910278
      ],
      "type": "VEC3"
    },
    {
      "bufferView": 3,
      "byteOffset": 115584,
      "componentType": 5126,
      "count": 1032,
      "max": [
        0.93112587928771973,
        0.99803388118743896,
        0.99513357877731323,
        1
      ],
      "min": [
        -0.9800494909286499,
        -0.98069667816162109,
        -0.93634307384490967,
        1
      ],
      "type": "VEC4"
    },
    {
      "bufferView": 1,
      "byteOffset": 57792,
      "componentType": 5126,
      "count": 1032,
      "max": [
        0.99164634943008423,
        0.99561917781829834
      ],
      "min": [
        0.0089711491018533707,
        0.012167502194643021
      ],
      "type": "VEC2"
    },
    {
      "bufferView": 0,
      "byteOffset": 39312,
      "componentType": 5125,
      "count": 1404,
      "max": [
        1031
      ],
      "min": [
        0
      ],
      "type": "SCALAR"
    }
  ],
  "asset": {
    "extras": {
      "author": "imaginerd3d (https://sketchfab.com/imaginerd3d)",
      "license": "CC-BY-4.0 (http://creativecommons.org/licenses/by/4.0/)",
      "source": "https://sketchfab.com/3d-models/low-poly-rocks-d23066e35ce7426abe65201752c56592",
      "title": "Low-Poly Rocks"
    },
    "generator": "Sketchfab-7.27.0",
    "version": "2.0"
  },
  "bufferViews": [
    {
      "buffer": 0,
      "byteLength": 44928,
      "byteOffset": 0,
      "name": "floatBufferViews",
      "target": 34963
    },
    {
      "buffer": 0,
      "byteLength": 66048,
      "byteOffset": 44928,
      "byteStride": 8,
      "name": "floatBufferViews",
      "target": 34962
    },
    {
      "buffer": 0,
      "byteLength": 198144,
      "byteOffset": 110976,
      "byteStride": 12,
      "name": "floatBufferViews",
      "target": 34962
    },
    {
      "buffer": 0,
      "byteLength": 132096,
      "byteOffset": 309120,
      "byteStride": 16,
      "name": "floatBufferViews",
      "target": 34962
    }
  ],
  "buffers": [
    {
      "byteLength": 441216,
      "uri": "scene.bin"
    }
  ],
  "images": [
    {
      "uri": "textures/stone_baseColor.png"
    },
    {
      "uri": "textures/stone_metallicRoughness.png"
    }
  ],
  "materials": [
    {
      "doubleSided": true,
      "name": "stone",
      "pbrMetallicRoughness": {
        "baseColorFactor": [
          1,
          1,
          1,
          1
        ],
        "baseColorTexture": {
          "index": 0,
          "texCoord": 0
        },
        "metallicFactor": 0,
        "metallicRoughnessTexture": {
          "index": 1,
          "texCoord": 0
        },
        "roughnessFactor": 1
      }
    }
  ],
  "meshes": [
    {
      "name": "r0_stone_0",
      "primitives": [
        {
          "attributes": {
            "NORMAL": 1,
            "POSITION": 0,
            "TANGENT": 2,
            "TEXCOORD_0": 3
          },
          "indices": 4,
          "material": 0,
          "mode": 4
        }
      ]
    },
    {
      "name": "r1_stone_0",
      "primitives": [
        {
          "attributes": {
            "NORMAL": 6,
            "POSITION": 5,
            "TANGENT": 7,
            "TEXCOORD_0": 8
          },
          "indices": 9,
          "material": 0,
          "mode": 4
        }
      ]
    },
    {
      "name": "r2_stone_0",
      "primitives": [
        {
          "attributes": {
            "NORMAL": 11,
            "POSITION": 10,
            "TANGENT": 12,
            "TEXCOORD_0": 13
          },
          "indices": 14,
          "material": 0,
          "mode": 4
        }
      ]
    },
    {
      "name": "r3_stone_0",
      "primitives": [
        {
          "attributes": {
            "NORMAL": 16,
            "POSITION": 15,
            "TANGENT": 17,
            "TEXCOORD_0": 18
          },
          "indices": 19,
          "material": 0,
          "mode": 4
        }
      ]
    },
    {
      "name": "r4_stone_0",
      "primitives": [
        {
          "attributes": {
            "NORMAL": 21,
            "POSITION": 20,
            "TANGENT": 22,
            "TEXCOORD_0": 23
          },
          "indices": 24,
          "material": 0,
          "mode": 4
        }
      ]
    },
    {
      "name": "r6_stone_0",
      "primitives": [
        {
          "attributes": {
            "NORMAL": 26,
            "POSITION": 25,
            "TANGENT": 27,
            "TEXCOORD_0": 28
          },
          "indices": 29,
          "material": 0,
          "mode": 4
        }
      ]
    },
    {
      "name": "r7_stone_0",
      "primitives": [
        {
          "attributes": {
            "NORMAL": 31,
            "POSITION": 30,
            "TANGENT": 32,
            "TEXCOORD_0": 33
          },
          "indices": 34,
          "material": 0,
          "mode": 4
        }
      ]
    },
    {
      "name": "r8_stone_0",
      "primitives": [
        {
          "attributes": {
            "NORMAL": 36,
            "POSITION": 35,
            "TANGENT": 37,
            "TEXCOORD_0": 38
          },
          "indices": 39,
          "material": 0,
          "mode": 4
        }
      ]
    }
  ],
  "nodes": [
    {
      "children": [
        1
      ],
      "name": "RootNode (gltf orientation matrix)",
      "rotation": [
        -0.70710678118654746,
        -0,
        -0,
        0.70710678118654757
      ]
    },
    {
      "children": [
        2
      ],
      "name": "RootNode (model correction matrix)"
    },
    {
      "children": [
        3
      ],
      "matrix": [
        1,
        0,
        0,
        0,
        0,
        -1,
        0,
        0,
        0,
        0,
        -1,
        0,
        0,
        0,
        0,
        1
      ],
      "name": "3b59f0ec4ff143bdb1780c611c22c36f.fbx"
    },
    {
      "children": [
        4,
        6,
        8,
        10,
        12,
        14,
        16,
        18
      ],
      "name": "RootNode"
    },
    {
      "children": [
        5
      ],
      "matrix": [
        70.649975422125493,
        193.65471188085758,
        350.41120270711485,
        0,
        297.40911921017181,
        -112.42167484451582,
        2.1661410445771958,
        0,
        108.15207266034606,
        282.68368182551797,
        -178.03074716417854,
        0,
        -229.82168579101562,
        -169.31294250488281,
        190.41383361816406,
        1
      ],
      "name": "r0"
    },
    {
      "mesh": 0,
      "name": "r0_stone_0"
    },
    {
      "children": [
        7
      ],
      "matrix": [
        55.447119745459851,
        -198.53445124811492,
        158.78473314467234,
        0,
        206.52305652136204,
        -25.445715577845878,
        -103.93291280066175,
        0,
        109.45575131121136,
        171.03055868378348,
        175.62426445465312,
        0,
        -724.6102294921875,
        180.1185302734375,
        80.499702453613281,
        1
      ],
      "name": "r1"
    },
    {
      "mesh": 1,
      "name": "r1_stone_0"
    },
    {
      "children": [
        9
      ],
      "matrix": [
        -34.061513618074251,
        -24.919270872618334,
        147.04415582801388,
        0,
        -131.55272201927266,
        35.976328058033992,
        -24.376221880359768,
        0,
        -30.662816926744341,
        -132.1046011526708,
        -29.490272983261878,
        0,
        -447.74053955078125,
        -616.02923583984375,
        49.328544616699219,
        1
      ],
      "name": "r2"
    },
    {
      "mesh": 2,
      "name": "r2_stone_0"
    },
    {
      "children": [
        11
      ],
      "matrix": [
        -173.78689210342114,
        -86.566343390629086,
        24.163560006571789,
        0,
        -22.746550018369781,
        -16.191448166814723,
        -221.60172980766217,
        0,
        87.085050183819689,
        -173.77915112740598,
        3.7583265654867049,
        0,
        -800.66796875,
        -372.01812744140625,
        105.82715606689453,
        1
      ],
      "name": "r3"
    },
    {
      "mesh": 3,
      "name": "r3_stone_0"
    },
    {
      "children": [
        13
      ],
      "matrix": [
        15.676044339462084,
        71.06344877389067,
        13.624139558446933,
        0,
        -5.7573826613227332,
        -12.670996722676184,
        72.716350867086504,
        0,
        72.128243256289849,
        -16.456044084006027,
        2.843313972626202,
        0,
        203.33273315429688,
        -83.348915100097656,
        80.03924560546875,
        1
      ],
      "name": "r4"
    },
    {
      "mesh": 4,
      "name": "r4_stone_0"
    },
    {
      "children": [
        15
      ],
      "matrix": [
        -20.798647532428319,
        -14.22178978585861,
        104.97032414075439,
        0,
        41.199090779894135,
        109.19966687562716,
        22.957917816344597,
        0,
        -96.978409037670232,
        39.50278850827857,
        -13.863150424865752,
        0,
        200.59394836425781,
        -348.126220703125,
        78.735366821289062,
        1
      ],
      "name": "r6"
    },
    {
      "mesh": 5,
      "name": "r6_stone_0"
    },
    {
      "children": [
        17
      ],
      "matrix": [
        51.577161917676335,
        -28.754940846674639,
        68.875475471353312,
        0,
        27.977610583430941,
        -115.21841495592328,
        -69.053671500455309,
        0,
        103.14061807883144,
        57.058104531093463,
        -53.415209305615704,
        0,
        -81.081291198730469,
        -603.3607177734375,
        163.0098876953125,
        1
      ],
      "name": "r7"
    },
    {
      "mesh": 6,
      "name": "r7_stone_0"
    },
    {
      "children": [
        19
      ],
      "matrix": [
        -20.461960044459349,
        -11.271294397432644,
        -24.735172219625515,
        0,
        -0.79218803715978647,
        31.194265452883368,
        -13.559235670125707,
        0,
        27.170632312147454,
        -7.578809698800459,
        -19.023170458591753,
        0,
        118.67383575439453,
        100.07867431640625,
        80.03924560546875,
        1
      ],
      "name": "r8"
    },
    {
      "mesh": 7,
      "name": "r8_stone_0"
    }
  ],
  "samplers": [
    {
      "magFilter": 9729,
      "minFilter": 9987,
      "wrapS": 10497,
      "wrapT": 10497
    }
  ],
  "scene": 0,
  "scenes": [
    {
      "name": "OSG_Scene",
      "nodes": [
        0
      ]
    }
  ],
  "textures": [
    {
      "sampler": 0,
      "source": 0
    },
    {
      "sampler": 0,
      "source": 1
    }
  ]
}

